# xmcd
#
# Track frame offsets:
# 150
# 15486
# 33436
# 48231
# 69130
# 84380
# 97415
# 110257
# 121266
# 132809
# 151812
# 167271
# 184335
# 195471
# 214557
# 225888
# 237199
# 253637
# 267532
# 287686
#
# Disc length: 4047 seconds
#
#
# Revision: 1
# Processed by: cddbd v1.5.2PL0 Copyright (c) Steve Scherf et al.
# Submitted via: FreeRIP 2.96 
#
DISCID=fd0fcd14
DTITLE=Teixerinha - As 20 mais Teixeirinha
DYEAR=1900
DGENRE=UnClassifiable
TTITLE0=A Morte não marca hora
TTITLE1=Tordilho Negro
TTITLE2=Coração de Luto
TTITLE3=Bota desafio nisso
TTITLE4=Última Geneteada
TTITLE5=Gaucho de passo fundo
TTITLE6=Cobra Sucuri
TTITLE7=Motorista Brasileiro
TTITLE8=Show no ceu
TTITLE9=Tropeiro Velho
TTITLE10=Facao de treis listas
TTITLE11=Querencia Amada
TTITLE12=Briga no Batizado
TTITLE13=O Desafio de doutores
TTITLE14=Não é não
TTITLE15=Relho Trancado
TTITLE16=Velho Casarão
TTITLE17=Chofer de Taxi
TTITLE18=Aliença de Ouro
TTITLE19=Desiludido
EXTD=
EXTT0=
EXTT1=
EXTT2=
EXTT3=
EXTT4=
EXTT5=
EXTT6=
EXTT7=
EXTT8=
EXTT9=
EXTT10=
EXTT11=
EXTT12=
EXTT13=
EXTT14=
EXTT15=
EXTT16=
EXTT17=
EXTT18=
EXTT19=
PLAYORDER=
